<?xml version="1.0" encoding="UTF-8"?>
<svg version="1.1" xmlns="http://www.w3.org/2000/svg" width="1024" height="1024">
<path d="M0 0 C337.92 0 675.84 0 1024 0 C1024 337.92 1024 675.84 1024 1024 C686.08 1024 348.16 1024 0 1024 C0 686.08 0 348.16 0 0 Z " fill="#1B2633" transform="translate(0,0)"/>
<path d="M0 0 C24.09 0 48.18 0 73 0 C73.01458252 10.53969727 73.02916504 21.07939453 73.04418945 31.93847656 C73.09296522 65.67601622 73.15637943 99.41351419 73.22898628 133.15101065 C73.24025421 138.39299124 73.2513927 143.63497209 73.26245117 148.87695312 C73.26465486 149.92052057 73.26685854 150.96408801 73.269129 152.03927872 C73.3044845 168.92819782 73.3293585 185.81711688 73.35034702 202.70605925 C73.37212298 220.040537 73.40519049 237.3749668 73.44870156 254.70940375 C73.4751873 265.40241426 73.49290534 276.09536503 73.49934604 286.7884067 C73.50460933 294.12477973 73.52085792 301.46107765 73.54566566 308.7974104 C73.55964838 313.02769024 73.56886356 317.25783573 73.56500816 321.48814011 C73.56158007 325.3673694 73.57206478 329.2463125 73.59323552 333.12548324 C73.59847296 334.52271671 73.59877062 335.91998014 73.59339563 337.31721309 C73.53093314 355.4088429 78.61233092 370.81081923 90.55078125 384.59375 C102.56904228 396.40116434 116.89448981 399.32393505 133.05541992 399.38720703 C141.63781915 399.26723004 148.25822079 397.88635255 156 394 C156.89589844 393.56558594 157.79179688 393.13117188 158.71484375 392.68359375 C172.04302481 385.47528627 181.44373612 372.84547699 185.9375 358.5 C187.40857942 352.96640322 188.12423909 347.55197086 188.1386652 341.82686806 C188.14413964 340.60270011 188.14961409 339.37853215 188.15525442 338.1172682 C188.15633048 336.76719458 188.1573152 335.41712087 188.15821838 334.06704712 C188.16278677 332.62643687 188.1677872 331.18582793 188.17318195 329.74522054 C188.18674094 325.79103183 188.19417492 321.8368517 188.20060861 317.88264585 C188.2086224 313.61685257 188.22231681 309.35107709 188.23532104 305.08529663 C188.2570699 297.69601627 188.27522021 290.30673409 188.29092598 282.91743851 C188.31363909 272.23375907 188.34177993 261.55009935 188.37124526 250.86643665 C188.41890349 233.53287403 188.46217247 216.19930334 188.50268555 198.86572266 C188.54204947 182.02782565 188.58347785 165.1899358 188.62768555 148.35205078 C188.63177196 146.7952036 188.63177196 146.7952036 188.63594092 145.20690496 C188.64962054 140.00007188 188.66334079 134.79323891 188.67708123 129.58640599 C188.79101823 86.39095139 188.8970259 43.1954824 189 0 C218.37 0 247.74 0 278 0 C278.06622421 44.7400544 278.12158285 89.48006232 278.15319599 134.22015176 C278.15694779 139.51061884 278.16083079 144.80108581 278.16479492 150.09155273 C278.16558185 151.14472184 278.16636878 152.19789095 278.16717956 153.28297428 C278.18020831 170.30163434 278.20384811 187.32026378 278.23145839 204.33890571 C278.2595832 221.82142706 278.27619117 239.30393244 278.28226548 256.78647548 C278.28636729 267.56086816 278.29928904 278.33517426 278.3237494 289.10954026 C278.33969409 296.5132287 278.34438075 303.91687284 278.34050413 311.32057717 C278.33859607 315.58237377 278.34137291 319.84401984 278.35761642 324.10578918 C278.43523389 345.5363811 277.85661784 366.22146756 272 387 C271.79890625 387.87011719 271.5978125 388.74023438 271.390625 389.63671875 C266.84255028 408.63325037 255.49707756 427.18864881 243 442 C242.06220703 443.1446875 242.06220703 443.1446875 241.10546875 444.3125 C230.08864745 456.51850975 213.7106808 465.51652166 198.80615234 472.18261719 C197.10936014 472.95050855 195.43818222 473.77429902 193.76953125 474.6015625 C174.6443189 483.34579792 152.86033963 485.57259852 132.0625 485.5 C131.32335358 485.4984491 130.58420715 485.49689819 129.82266235 485.49530029 C92.6599299 485.2683349 55.96296999 474.36745789 28 449 C27.25363281 448.39414062 26.50726562 447.78828125 25.73828125 447.1640625 C14.55592311 437.91373482 6.63509394 425.76196791 0 413 C-0.60585938 411.8759375 -1.21171875 410.751875 -1.8359375 409.59375 C-5.57383079 402.21589948 -8.12196267 394.80435825 -10.25 386.8125 C-10.60118896 385.50647827 -10.60118896 385.50647827 -10.95947266 384.17407227 C-15.85104873 364.66211881 -16.47986156 345.3419694 -16.52410543 325.34096992 C-16.53599538 321.38512973 -16.56471122 317.42940044 -16.59074402 313.47363281 C-16.64948796 303.96459727 -16.68014379 294.45555468 -16.70692739 284.94638363 C-16.71749053 281.35369439 -16.72992444 277.76101277 -16.74244637 274.16832991 C-16.79776063 258.29188449 -16.84500895 242.41543848 -16.86814022 226.53891087 C-16.87386806 222.6710414 -16.8796294 218.80317199 -16.88549805 214.93530273 C-16.88694927 213.97419025 -16.88840049 213.01307777 -16.88989569 212.02284067 C-16.9148125 196.4439402 -16.99088934 180.86572935 -17.08824008 165.28713012 C-17.18771071 149.2368159 -17.24150776 133.18685186 -17.25107294 117.13622802 C-17.25753954 108.14641171 -17.28336173 99.15760606 -17.36045647 90.16809273 C-17.42593143 82.51697333 -17.44955766 74.86711109 -17.42055612 67.21574325 C-17.40702621 63.32148151 -17.41196867 59.42980709 -17.47084045 55.53590965 C-17.72435539 37.79937191 -16.41091937 23.91235904 -5.53328997 9.21326298 C-3.49323197 6.26849393 -1.77736201 3.11038352 0 0 Z " fill="#F8F7EF" transform="translate(555,269)"/>
<path d="M0 0 C31.35 0 62.7 0 95 0 C95 5.258149 93.80923172 7.70713144 91.3125 12.0625 C87.20759119 19.52972105 83.50577635 27.13789512 79.9375 34.875 C79.12853271 36.62840698 79.12853271 36.62840698 78.30322266 38.41723633 C75.50003528 44.50820382 72.72079309 50.6100959 69.94273376 56.71255493 C68.88697326 59.03145829 67.8303465 61.34996565 66.77368164 63.66845703 C65.42237694 66.63372332 64.07566554 69.60100928 62.73217773 72.56982422 C59.26338818 80.21095536 55.66103997 87.76158088 51.87736511 95.25190735 C48.77074545 101.41394677 45.87011218 107.66201811 43 113.9375 C37.26334927 126.39740871 31.31779718 138.74910992 25.29296875 151.07202148 C24.79780258 152.08681076 24.79780258 152.08681076 24.29263306 153.12210083 C23.39764661 154.95561114 22.50041965 156.78802733 21.60302734 158.62036133 C19.30693452 163.46117962 17.08700887 168.21488846 15.8125 173.4375 C14.05375293 179.47526056 11.17091289 184.88789727 8.30859375 190.453125 C5.7532154 195.43396587 3.38081397 200.49654033 1 205.5625 C-2.12753657 212.18882749 -5.38097436 218.6895643 -8.890625 225.12182617 C-13.38551332 233.44565197 -17.42415644 242.02111271 -21.37038422 250.61666203 C-22.52140587 253.00636351 -23.70166522 255.27612846 -25.00188446 257.57836819 C-31.32492166 269.17681534 -32.11112125 279.08709376 -31.90820312 292.11547852 C-31.90594086 294.17707226 -31.90722425 296.23867242 -31.91174316 298.30026245 C-31.91401874 303.84304682 -31.86731071 309.38441842 -31.8111515 314.92687726 C-31.76080673 320.73901343 -31.75641549 326.55118955 -31.74694824 332.36351013 C-31.72218078 343.34574449 -31.65666457 354.32733427 -31.57615232 365.30928606 C-31.48642782 377.82204729 -31.44267063 390.33484089 -31.40258884 402.84784424 C-31.31918929 428.56558548 -31.178667 454.28275646 -31 480 C-43.21615971 480.80106989 -55.36101658 481.1381871 -67.6015625 481.09765625 C-69.3021948 481.09578398 -71.00282765 481.09436392 -72.70346069 481.09336853 C-77.11240206 481.08960692 -81.52130883 481.07983353 -85.93023682 481.06866455 C-90.45609062 481.05831119 -94.98195019 481.05384153 -99.5078125 481.04882812 C-108.33855729 481.03820341 -117.1692743 481.02120667 -126 481 C-125.99870118 479.94369416 -125.99740236 478.88738832 -125.99606419 477.79907322 C-125.96599633 452.03972344 -125.97632423 426.28062785 -126.02846622 400.52130985 C-126.05275708 388.0640167 -126.06415193 375.60696618 -126.04467773 363.1496582 C-126.02772776 352.28576381 -126.03549397 341.42220898 -126.07234758 330.55835909 C-126.09099554 324.81143476 -126.09766875 319.06508408 -126.07469368 313.31816292 C-126.05341077 307.89650727 -126.06545344 302.47589634 -126.10184479 297.05433083 C-126.10946796 295.07642292 -126.10544949 293.09842602 -126.08818626 291.12057877 C-125.98144533 277.86352296 -128.04134394 267.86852806 -134 256 C-134.73981912 254.49305116 -134.73981912 254.49305116 -135.49458408 252.95565891 C-136.28008703 251.37982833 -137.0772139 249.80973016 -137.88671875 248.24609375 C-139.85591505 244.27315385 -141.39074962 240.12834616 -143 236 C-145.73476334 229.15318309 -148.68131927 222.42327153 -151.8125 215.75 C-152.25480957 214.8053186 -152.25480957 214.8053186 -152.70605469 213.84155273 C-155.64877544 207.62616517 -158.7439002 201.48638863 -161.82592773 195.33935547 C-163.62793348 191.74528105 -165.42237789 188.14750503 -167.21351624 184.54800415 C-168.6532513 181.65488976 -170.09516263 178.76286217 -171.53710938 175.87084961 C-172.26665531 174.40668234 -172.99548839 172.94215968 -173.72363281 171.47729492 C-178.83270131 161.19315702 -178.83270131 161.19315702 -184.2734375 151.08203125 C-186.44926236 147.14786815 -188.15837269 143.22033141 -189.76220703 139.02734375 C-192.46545343 132.41585354 -195.64498611 126.00553438 -198.7175293 119.55957031 C-199.93399559 117.00735246 -201.14609315 114.45309714 -202.35742188 111.8984375 C-207.57734739 100.90081867 -207.57734739 100.90081867 -213.0234375 90.01391602 C-214.49351453 86.98224965 -215.7101571 83.86138531 -216.91015625 80.71484375 C-220.09892124 72.77150443 -223.84283061 65.07959785 -227.5625 57.375 C-228.63171437 55.15504614 -229.70072005 52.93499175 -230.76953125 50.71484375 C-231.30787598 49.59706543 -231.8462207 48.47928711 -232.40087891 47.32763672 C-233.92306993 44.16008502 -235.4379984 40.98920444 -236.94921875 37.81640625 C-237.41666504 36.83534912 -237.88411133 35.85429199 -238.36572266 34.84350586 C-239.28131571 32.92140637 -240.1963637 30.99904714 -241.11083984 29.07641602 C-243.18037713 24.7410202 -245.27550474 20.42475223 -247.46484375 16.1484375 C-247.8422168 15.40988525 -248.21958984 14.67133301 -248.60839844 13.91040039 C-249.30334848 12.55933576 -250.00529826 11.21183714 -250.71582031 9.86889648 C-252.42846934 6.54575804 -253 4.84676284 -253 1 C-212.08 1 -171.16 1 -129 1 C-126.69 7.6 -124.38 14.2 -122 21 C-121.01 23.31 -120.02 25.62 -119 28 C-118.44849282 29.55107533 -117.91937734 31.11045639 -117.421875 32.6796875 C-117.15181641 33.51701416 -116.88175781 34.35434082 -116.60351562 35.21704102 C-116.32185547 36.09416748 -116.04019531 36.97129395 -115.75 37.875 C-113.56948934 44.55077983 -111.24835867 51.09928428 -108.5 57.5625 C-104.85132683 66.14538391 -101.80633611 74.90284264 -98.78466797 83.72265625 C-97.69437209 86.88702462 -96.56823336 90.03734187 -95.4375 93.1875 C-93.11852566 99.65940878 -90.82755744 106.14089663 -88.54296875 112.625 C-87.50742523 115.56375796 -86.46811071 118.50114224 -85.42578125 121.4375 C-83.19262175 127.73438072 -80.97068198 134.03065026 -78.875 140.375 C-75.86404176 149.48221938 -72.47486755 158.42661564 -68.953125 167.34765625 C-68 170 -68 170 -68 172 C-67.34 172 -66.68 172 -66 172 C-65.443125 170.2675 -65.443125 170.2675 -64.875 168.5 C-61.64704314 158.83128416 -57.95846779 149.31765636 -54.125 139.875 C-51.19824884 132.62743989 -48.52522582 125.29748569 -45.89111328 117.93896484 C-43.98767235 112.63852472 -41.99190725 107.39015487 -39.87304688 102.171875 C-38.83347216 99.58572939 -37.8694961 96.97330027 -36.90234375 94.359375 C-35.70991905 91.24151995 -34.4435289 88.15526726 -33.1875 85.0625 C-30.99601561 79.65566321 -29.00930988 74.20816373 -27.125 68.6875 C-25.05651646 62.65207117 -22.66393701 56.85848198 -20 51.0625 C-16.85138842 44.20990297 -14.31048641 37.3068766 -12.01000977 30.12841797 C-10.58285212 25.6882628 -9.00832496 21.44613079 -7.0078125 17.2265625 C-5.15771737 13.13914303 -3.63580951 8.91831928 -2.05078125 4.72265625 C-1 2 -1 2 0 0 Z " fill="#F8F7EF" transform="translate(445,269)"/>
<path d="M0 0 C1.04151465 3.12454395 1.1185804 5.26164933 1.10743046 8.53849316 C1.10593811 9.69747024 1.10444576 10.85644732 1.10290819 12.05054492 C1.0961044 13.32971028 1.08930061 14.60887564 1.08229065 15.92680359 C1.07859783 17.29470058 1.07534831 18.66259883 1.07250541 20.03049785 C1.06338673 23.79766527 1.04795461 27.56478481 1.03152263 31.33192647 C1.01491162 35.39120536 1.00411151 39.45050012 0.99261475 43.50979614 C0.97188842 50.54555821 0.94745965 57.58129967 0.92053413 64.61704063 C0.88160941 74.78960936 0.84824061 84.9621903 0.81623887 95.13478289 C0.76416998 111.63812823 0.70759196 128.14145492 0.64819336 144.64477539 C0.59049411 160.67862217 0.53490912 176.71247397 0.48217773 192.74633789 C0.47730316 194.22819894 0.47730316 194.22819894 0.4723301 195.73999657 C0.4560407 200.69591214 0.43979298 205.65182785 0.42356598 210.60774362 C0.28883884 251.73851876 0.14680019 292.86926629 0 334 C-2.17095915 330.74356128 -2.25201993 329.84072953 -2.26171303 326.07629681 C-2.26917852 325.05425614 -2.27664401 324.03221547 -2.28433573 322.97920388 C-2.282401 321.85279435 -2.28046626 320.72638482 -2.2784729 319.56584167 C-2.2842653 318.37163032 -2.2900577 317.17741897 -2.29602563 315.9470194 C-2.31012274 312.62538657 -2.31525861 309.30395491 -2.31667423 305.9823066 C-2.3203624 302.40095039 -2.33551744 298.81964083 -2.34928894 295.23831177 C-2.37160149 289.02440567 -2.38659266 282.81051613 -2.39665604 276.5965786 C-2.41126525 267.57957052 -2.43681665 258.56261937 -2.46498732 249.54564468 C-2.51052031 234.87362532 -2.54709109 220.20159767 -2.578125 205.52954102 C-2.60813563 191.34983808 -2.6424465 177.17015646 -2.68261719 162.99047852 C-2.68507874 162.12109109 -2.68754028 161.25170367 -2.69007643 160.35597118 C-2.69999535 156.85946753 -2.70994922 153.36296399 -2.71994839 149.86646057 C-2.79916229 122.16385991 -2.87276232 94.46124702 -2.93509245 66.75860298 C-2.93981432 64.6778307 -2.94465824 62.59705875 -2.94954109 60.51628685 C-2.95258184 59.2065169 -2.9556226 57.89674694 -2.95875549 56.54728699 C-2.96340242 54.623708 -2.96340242 54.623708 -2.96814322 52.66126883 C-2.97298022 50.16185555 -2.97579705 47.66243741 -2.97642732 45.16301954 C-2.97894328 39.34245657 -2.99924685 33.52359273 -3.08054108 27.70362818 C-3.11789067 24.91787535 -3.14393802 22.13207026 -3.16875283 19.34618089 C-3.19072243 17.38359162 -3.22853701 15.42119996 -3.2667433 13.45885962 C-3.27609447 12.27670617 -3.28544564 11.09455271 -3.29508018 9.87657642 C-3.31040838 8.8355879 -3.32573657 7.79459938 -3.34152925 6.72206575 C-2.95361864 3.63032999 -2.06892333 2.28000604 0 0 Z " fill="#262B34" transform="translate(539,294)"/>
<path d="M0 0 C0.66 0 1.32 0 2 0 C2.03186346 13.62498846 2.05139598 27.24997893 2.0625 40.875 C2.06335602 41.91763 2.06421204 42.96026001 2.06509399 44.03448486 C2.09275125 82.35858473 1.85788002 120.67782109 1.5 159 C1.48804218 160.28101341 1.47608437 161.56202682 1.46376419 162.88185883 C1.3164882 178.58798031 1.16194413 194.29402311 1 210 C0.67 210 0.34 210 0 210 C-1.10337964 79.15511634 -1.10337964 79.15511634 -1.12338257 34.78183365 C-1.12499988 32.43767124 -1.1285486 30.09351855 -1.13256836 27.74935913 C-1.13931318 23.51908369 -1.13709581 19.28887257 -1.1328125 15.05859375 C-1.13479645 13.85257507 -1.1367804 12.6465564 -1.13882446 11.4039917 C-1.13571259 10.32377747 -1.13260071 9.24356323 -1.12939453 8.13061523 C-1.12859894 7.20304916 -1.12780334 6.27548309 -1.12698364 5.31980896 C-1 3 -1 3 0 0 Z " fill="#33373E" transform="translate(414,537)"/>
<path d="M0 0 C29.37 0 58.74 0 89 0 C89 14.52 89 29.04 89 44 C88.01 44.495 88.01 44.495 87 45 C87 30.81 87 16.62 87 2 C58.62 1.67 30.24 1.34 1 1 C1 35.32 1 69.64 1 105 C0.67 105 0.34 105 0 105 C0 70.35 0 35.7 0 0 Z " fill="#E7E3DF" transform="translate(744,269)"/>
<path d="M0 0 C27.72 0 55.44 0 84 0 C84 0.33 84 0.66 84 1 C56.94 1.33 29.88 1.66 2 2 C2.020625 14.684375 2.04125 27.36875 2.0625 40.4375 C2.08482951 68.56723478 1.97773011 96.68667799 1.5 124.8125 C1.48804218 125.51699657 1.47608437 126.22149315 1.46376419 126.9473381 C1.32097837 135.29845271 1.16723506 143.64933796 1 152 C0.67 152 0.34 152 0 152 C0 101.84 0 51.68 0 0 Z " fill="#FEFEFC" transform="translate(745,270)"/>
<path d="M0 0 C31.35 0 62.7 0 95 0 C95 0.99 95 1.98 95 3 C93.25899521 2.99000725 93.25899521 2.99000725 91.4828186 2.97981262 C80.56409164 2.91909387 69.64539877 2.87407187 58.72654152 2.84456348 C53.11254485 2.82888313 47.49868407 2.80760167 41.88476562 2.77368164 C36.4707238 2.74117265 31.05681298 2.72316486 25.64268112 2.71536827 C23.57332673 2.70980952 21.50397981 2.69895519 19.43468094 2.68280983 C16.54434762 2.66114797 13.6545611 2.65802834 10.76416016 2.65942383 C9.90173203 2.648638 9.03930389 2.63785217 8.15074158 2.6267395 C5.53456501 2.60478394 5.53456501 2.60478394 2 3 C1.34 3.99 0.68 4.98 0 6 C-1.125 2.25 -1.125 2.25 0 0 Z " fill="#FCFBF9" transform="translate(445,269)"/>
<path d="M0 0 C0.639375 0.66 1.27875 1.32 1.9375 2 C7.64449256 7.69087111 13.69708465 12.86387179 20.203125 17.61328125 C22.70800159 19.54639253 24.83351976 21.69811475 27 24 C18.34220526 24 7.89396214 11.85238216 2 6 C0 3 0 3 0 0 Z " fill="#EFECE9" transform="translate(572,704)"/>
<path d="M0 0 C0.66 0.33 1.32 0.66 2 1 C-3.72458595 7.3167845 -10.9177041 13.14484112 -19 16 C-19.66 15.34 -20.32 14.68 -21 14 C-19.90300781 13.32453125 -18.80601562 12.6490625 -17.67578125 11.953125 C-16.22124887 11.05225333 -14.76682764 10.15120216 -13.3125 9.25 C-12.59126953 8.8065625 -11.87003906 8.363125 -11.12695312 7.90625 C-7.21372354 5.47611656 -3.52919771 2.97928327 0 0 Z " fill="#2D333C" transform="translate(787,720)"/>
<path d="M0 0 C4.12337928 3.68180284 5.92962927 8.64318295 8.25 13.5625 C8.72179687 14.53380859 9.19359375 15.50511719 9.6796875 16.50585938 C10.34097656 17.89708008 10.34097656 17.89708008 11.015625 19.31640625 C11.42071289 20.16662354 11.82580078 21.01684082 12.24316406 21.89282227 C12.49291992 22.58819092 12.74267578 23.28355957 13 24 C12.67 24.66 12.34 25.32 12 26 C11.34 26 10.68 26 10 26 C8.68057599 23.27399186 7.36932285 20.54454161 6.0625 17.8125 C5.68931641 17.04357422 5.31613281 16.27464844 4.93164062 15.48242188 C3.09369564 11.62439321 1.75637398 8.22773246 1 4 C0.34 3.34 -0.32 2.68 -1 2 C-0.67 1.34 -0.34 0.68 0 0 Z " fill="#30363E" transform="translate(194,278)"/>
<path d="M0 0 C1.1953125 1.55859375 1.1953125 1.55859375 2 4 C1.0855542 6.56104593 0.14553132 8.69133399 -1.125 11.0625 C-1.434375 11.68705078 -1.74375 12.31160156 -2.0625 12.95507812 C-3.89131121 16.49556595 -5.57287111 18.92087514 -9 21 C-7.50640515 16.15713185 -5.54966433 11.68649104 -3.375 7.125 C-2.88773438 6.09246094 -2.88773438 6.09246094 -2.390625 5.0390625 C-1.59676528 3.35794781 -0.79880442 1.67877079 0 0 Z " fill="#313740" transform="translate(823,667)"/>
<path d="M0 0 C2.15911081 3.23866621 3.92917168 6.59869892 5.6875 10.0625 C6.02072266 10.69994141 6.35394531 11.33738281 6.69726562 11.99414062 C7.52762762 13.63242239 8.27094559 15.31419223 9 17 C8.67 17.66 8.34 18.32 8 19 C7.34 19 6.68 19 6 19 C4.80057395 16.40074504 3.61527179 13.79654493 2.4375 11.1875 C1.92413086 10.08051758 1.92413086 10.08051758 1.40039062 8.95117188 C1.08134766 8.23896484 0.76230469 7.52675781 0.43359375 6.79296875 C0.13509521 6.1383667 -0.16340332 5.48376465 -0.47094727 4.80932617 C-1 3 -1 3 0 0 Z " fill="#353A42" transform="translate(216,323)"/>
<path d="M0 0 C0.66 0.99 1.32 1.98 2 3 C1.32449143 5.52287767 0.58256223 7.77666782 -0.375 10.1875 C-0.6225 10.84169922 -0.87 11.49589844 -1.125 12.16992188 C-1.73787188 13.78460355 -2.3673723 15.3929558 -3 17 C-3.99 17 -4.98 17 -6 17 C-4.33846988 11.14340094 -2.52958084 5.5409866 0 0 Z " fill="#DEDBD7" transform="translate(422,327)"/>
<path d="M0 0 C0.66 0 1.32 0 2 0 C0.56875447 3.35934832 -1.17728304 5.31792827 -3.9375 7.6875 C-4.62714844 8.28949219 -5.31679688 8.89148438 -6.02734375 9.51171875 C-8 11 -8 11 -11 12 C-11 11.01 -11 10.02 -11 9 C-10.1646875 8.6596875 -10.1646875 8.6596875 -9.3125 8.3125 C-6.35823409 6.63575448 -4.33152149 4.45423315 -2 2 C-1.34 1.34 -0.68 0.68 0 0 Z " fill="#F0EEEB" transform="translate(793,712)"/>
<path d="M0 0 C3.63542473 4.32788658 5.89250159 9.46250797 7 15 C6.01 15 5.02 15 4 15 C-0.59225513 5.77448747 -0.59225513 5.77448747 0 0 Z " fill="#373C43" transform="translate(228,349)"/>
<path d="M0 0 C-0.33 0.66 -0.66 1.32 -1 2 C-3.31 1.67 -5.62 1.34 -8 1 C-8.33 1.66 -8.66 2.32 -9 3 C-12.96 3 -16.92 3 -21 3 C-21 2.67 -21 2.34 -21 2 C-18.25162151 1.46892686 -15.50187625 0.94984119 -12.75 0.4375 C-11.97269531 0.28603516 -11.19539062 0.13457031 -10.39453125 -0.02148438 C-9.64042969 -0.16005859 -8.88632812 -0.29863281 -8.109375 -0.44140625 C-7.07248535 -0.63778687 -7.07248535 -0.63778687 -6.01464844 -0.83813477 C-3.78712058 -1.01710362 -2.12493038 -0.65206197 0 0 Z " fill="#504F52" transform="translate(727,751)"/>
<path d="M0 0 C0.66 0 1.32 0 2 0 C2.86375896 1.61992165 3.71575854 3.24611861 4.5625 4.875 C5.03816406 5.77992188 5.51382813 6.68484375 6.00390625 7.6171875 C6.33261719 8.40351563 6.66132813 9.18984375 7 10 C6.67 10.66 6.34 11.32 6 12 C2.20444669 9.46963112 1.5544614 7.21925236 0 3 C0 2.01 0 1.02 0 0 Z " fill="#292F38" transform="translate(242,382)"/>
<path d="M0 0 C3.3 0 6.6 0 10 0 C10.66 2.64 11.32 5.28 12 8 C11.01 7.01 10.02 6.02 9 5 C9.33 4.34 9.66 3.68 10 3 C9.36191406 2.95101563 8.72382813 2.90203125 8.06640625 2.8515625 C7.24011719 2.77679688 6.41382813 2.70203125 5.5625 2.625 C4.73878906 2.55539062 3.91507812 2.48578125 3.06640625 2.4140625 C2.38449219 2.27742188 1.70257813 2.14078125 1 2 C0.67 1.34 0.34 0.68 0 0 Z " fill="#EFEDEA" transform="translate(306,270)"/>
<path d="M0 0 C1.68178661 2.52267991 2.90106742 4.81091823 4.125 7.5625 C4.47820312 8.34753906 4.83140625 9.13257813 5.1953125 9.94140625 C6 12 6 12 6 14 C3 13 3 13 1.796875 10.8203125 C1.45140625 9.93085938 1.1059375 9.04140625 0.75 8.125 C0.39421875 7.24070312 0.0384375 6.35640625 -0.328125 5.4453125 C-1 3 -1 3 0 0 Z " fill="#EFEDEA" transform="translate(331,315)"/>
<path d="M0 0 C0.66 0.33 1.32 0.66 2 1 C1.34 3.31 0.68 5.62 0 8 C-0.66 8 -1.32 8 -2 8 C-2.66 6.02 -3.32 4.04 -4 2 C-2.125 0.9375 -2.125 0.9375 0 0 Z " fill="#2B3139" transform="translate(379,433)"/>
<path d="M0 0 C0.99 0.33 1.98 0.66 3 1 C3.94921875 3.06640625 3.94921875 3.06640625 4.6875 5.5625 C4.93886719 6.38878906 5.19023437 7.21507812 5.44921875 8.06640625 C5.63097656 8.70449219 5.81273437 9.34257812 6 10 C5.01 10 4.02 10 3 10 C0.96564469 6.27034861 0 4.33094958 0 0 Z " fill="#F1EFEB" transform="translate(344,354)"/>
<path d="M0 0 C0.33 0 0.66 0 1 0 C0.88601335 1.62580966 0.75844341 3.25067157 0.625 4.875 C0.55539062 5.77992188 0.48578125 6.68484375 0.4140625 7.6171875 C0 10 0 10 -2 12 C-2.66 11.67 -3.32 11.34 -4 11 C-3.71758359 9.53984709 -3.42373386 8.08190207 -3.125 6.625 C-2.96257813 5.81289063 -2.80015625 5.00078125 -2.6328125 4.1640625 C-2 2 -2 2 0 0 Z " fill="#343A42" transform="translate(742,618)"/>
<path d="M0 0 C2.52394612 3.12488567 4.39701907 6.31314387 6 10 C5.67 10.66 5.34 11.32 5 12 C1.67830089 9.31100548 0.43522725 5.94687492 -1 2 C-0.67 1.34 -0.34 0.68 0 0 Z " fill="#31363E" transform="translate(282,462)"/>
<path d="M0 0 C1.18771723 3.42943519 0.80226223 5.37784675 -0.4375 8.75 C-0.72496094 9.54921875 -1.01242187 10.3484375 -1.30859375 11.171875 C-1.53675781 11.77515625 -1.76492188 12.3784375 -2 13 C-2.99 13 -3.98 13 -5 13 C-3.58192622 8.52761347 -1.88695626 4.28853694 0 0 Z " fill="#3A3F46" transform="translate(484,389)"/>
<path d="M0 0 C1.1875 1.5625 1.1875 1.5625 2 4 C0.58626635 8.31560798 -0.17758864 10.45172576 -4 13 C-3.52140759 11.39566191 -3.04210442 9.79153584 -2.5625 8.1875 C-2.29566406 7.29417969 -2.02882813 6.40085937 -1.75390625 5.48046875 C-1.19612127 3.64526945 -0.60655425 1.81966274 0 0 Z " fill="#DBD6D3" transform="translate(435,293)"/>
<path d="M0 0 C-1.86731246 2.38601036 -2.94463485 2.98586422 -5.9375 3.75 C-8.73675772 3.97851083 -10.36224767 3.75201578 -13 3 C-11.21189234 2.30329584 -9.41937948 1.61788811 -7.625 0.9375 C-6.62726562 0.55464844 -5.62953125 0.17179688 -4.6015625 -0.22265625 C-2 -1 -2 -1 0 0 Z " fill="#40434A" transform="translate(752,743)"/>
<path d="M0 0 C2.64465038 3.1254959 3.84414715 6.08788267 5 10 C4.01 10 3.02 10 2 10 C1.46987262 8.71211992 0.9511671 7.41953322 0.4375 6.125 C0.14746094 5.40570312 -0.14257812 4.68640625 -0.44140625 3.9453125 C-1 2 -1 2 0 0 Z " fill="#E5E2DE" transform="translate(631,631)"/>
<path d="M0 0 C0.66 0 1.32 0 2 0 C0.68938409 4.23429756 -0.94356259 8.07407404 -3 12 C-3.66 11.01 -4.32 10.02 -5 9 C-3.35 6.03 -1.7 3.06 0 0 Z " fill="#EFECE9" transform="translate(430,501)"/>
<path d="M0 0 C0.66 0 1.32 0 2 0 C2 1.32 2 2.64 2 4 C2.66 4 3.32 4 4 4 C5.4606285 6.64738916 6 7.89448334 6 11 C5.34 11 4.68 11 4 11 C3.32591692 9.73308493 2.66099503 8.46129251 2 7.1875 C1.62875 6.47980469 1.2575 5.77210938 0.875 5.04296875 C0 3 0 3 0 0 Z " fill="#F1EFEC" transform="translate(244,381)"/>
<path d="M0 0 C0.66 0 1.32 0 2 0 C2.69710731 1.28650706 3.38242876 2.57940665 4.0625 3.875 C4.63677734 4.95394531 4.63677734 4.95394531 5.22265625 6.0546875 C5.47917969 6.69664062 5.73570312 7.33859375 6 8 C5.67 8.66 5.34 9.32 5 10 C1.32769295 6.92000054 0.43197635 4.7517398 0 0 Z " fill="#323840" transform="translate(210,313)"/>
<path d="M0 0 C2.67901932 2.31881505 3.66204403 4.31814468 4.6875 7.6875 C4.93886719 8.49574219 5.19023437 9.30398438 5.44921875 10.13671875 C5.63097656 10.75160156 5.81273437 11.36648438 6 12 C5.01 12.495 5.01 12.495 4 13 C3.80664062 12.37351562 3.61328125 11.74703125 3.4140625 11.1015625 C3.15367187 10.28429687 2.89328125 9.46703125 2.625 8.625 C2.36976563 7.81289063 2.11453125 7.00078125 1.8515625 6.1640625 C1.10145717 3.83540815 1.10145717 3.83540815 -1 2 C-0.67 1.34 -0.34 0.68 0 0 Z " fill="#3B3F46" transform="translate(194,278)"/>
<path d="M0 0 C1.8125 1.5 1.8125 1.5 3 3 C-1.8333472 3.08333357 -6.23692563 2.95261487 -11 2 C-11 1.67 -11 1.34 -11 1 C-3.55769231 -0.38461538 -3.55769231 -0.38461538 0 0 Z " fill="#D8D3CE" transform="translate(665,750)"/>
<path d="M0 0 C7.57142857 1.85714286 7.57142857 1.85714286 10 5 C7 6 7 6 5.17578125 5.22265625 C3.45052083 4.1484375 1.72526042 3.07421875 0 2 C0 1.34 0 0.68 0 0 Z " fill="#242B36" transform="translate(599,731)"/>
<path d="M0 0 C0.66 0.33 1.32 0.66 2 1 C-0.52956528 4.0916909 -3.22454612 4.90931332 -7 6 C-7.66 5.34 -8.32 4.68 -9 4 C-7.54618103 3.30300448 -6.08677047 2.61766134 -4.625 1.9375 C-3.40683594 1.36322266 -3.40683594 1.36322266 -2.1640625 0.77734375 C-1.44992187 0.52082031 -0.73578125 0.26429688 0 0 Z " fill="#EAE7E4" transform="translate(715,661)"/>
<path d="M0 0 C1 3 1 3 0.22265625 5.04296875 C-0.16019531 5.75066406 -0.54304687 6.45835937 -0.9375 7.1875 C-1.31777344 7.90292969 -1.69804688 8.61835937 -2.08984375 9.35546875 C-2.54037109 10.16951172 -2.54037109 10.16951172 -3 11 C-3.66 10.01 -4.32 9.02 -5 8 C-4.01 6.02 -3.02 4.04 -2 2 C-1.34 2 -0.68 2 0 2 C0 1.34 0 0.68 0 0 Z " fill="#2F343D" transform="translate(739,630)"/>
<path d="M0 0 C0.66 0 1.32 0 2 0 C2.69710731 1.28650706 3.38242876 2.57940665 4.0625 3.875 C4.63677734 4.95394531 4.63677734 4.95394531 5.22265625 6.0546875 C5.47917969 6.69664062 5.73570312 7.33859375 6 8 C5.67 8.66 5.34 9.32 5 10 C4.34 10 3.68 10 3 10 C0 3.375 0 3.375 0 0 Z " fill="#30353D" transform="translate(235,367)"/>
<path d="M0 0 C3.6875 1.375 3.6875 1.375 7 3 C7 3.66 7 4.32 7 5 C3.44219804 4.39009109 0.3171411 3.4216319 -3 2 C-2.01 1.34 -1.02 0.68 0 0 Z " fill="#E2E0DC" transform="translate(619,738)"/>
<path d="M0 0 C0.99 0.66 1.98 1.32 3 2 C-2.17578125 5.22265625 -2.17578125 5.22265625 -4 6 C-4.99 5.67 -5.98 5.34 -7 5 C-5.73223544 2.46447088 -4.53176935 2.15080425 -2 1 C-1.34 0.67 -0.68 0.34 0 0 Z " fill="#2C333C" transform="translate(715,658)"/>
<path d="M0 0 C0.33 0 0.66 0 1 0 C1.19622241 4.21878192 0.80230168 7.17010894 -1 11 C-1.99 11 -2.98 11 -4 11 C-2.7874262 7.27566618 -1.49140021 3.62197194 0 0 Z " fill="#373D44" transform="translate(500,355)"/>
<path d="M0 0 C0.66 1.32 1.32 2.64 2 4 C-1.75 9.875 -1.75 9.875 -4 11 C-3.52269162 9.5410574 -3.04308958 8.08286504 -2.5625 6.625 C-2.29566406 5.81289063 -2.02882813 5.00078125 -1.75390625 4.1640625 C-1 2 -1 2 0 0 Z " fill="#3B3F46" transform="translate(531,289)"/>
<path d="M0 0 C0.66 0.33 1.32 0.66 2 1 C0.25 6.75 0.25 6.75 -2 9 C-2.66 9 -3.32 9 -4 9 C-2.80100302 5.9168649 -1.52299523 2.93720508 0 0 Z " fill="#E2DFDB" transform="translate(550,278)"/>
<path d="M0 0 C0.99 0 1.98 0 3 0 C3.99 2.31 4.98 4.62 6 7 C5.34 7.66 4.68 8.32 4 9 C0 2.25 0 2.25 0 0 Z " fill="#E3E0DD" transform="translate(258,413)"/>
<path d="M0 0 C0.66 0.33 1.32 0.66 2 1 C0.02 5.455 0.02 5.455 -2 10 C-2.66 9.67 -3.32 9.34 -4 9 C-2.94124926 5.59687262 -1.99097846 2.98646769 0 0 Z " fill="#F0EEEA" transform="translate(475,405)"/>
<path d="M0 0 C2.15377564 2.62198774 3.40072174 4.64404172 4 8 C3.01 8 2.02 8 1 8 C-0.42944945 5.64561267 -1.08661261 4.51967567 -0.625 1.75 C-0.41875 1.1725 -0.2125 0.595 0 0 Z " fill="#3A3E45" transform="translate(207,304)"/>
<path d="M0 0 C1.32 0.33 2.64 0.66 4 1 C3.67 2.98 3.34 4.96 3 7 C3.99 7.33 4.98 7.66 6 8 C5.34 8 4.68 8 4 8 C3.67 8.66 3.34 9.32 3 10 C2.01 6.7 1.02 3.4 0 0 Z " fill="#47494F" transform="translate(370,421)"/>
<path d="M0 0 C3.62383901 2.41589267 4.06400328 3.83056007 5 8 C4.01 9.485 4.01 9.485 3 11 C2.01 7.37 1.02 3.74 0 0 Z " fill="#45484E" transform="translate(326,299)"/>
<path d="M0 0 C0.66 0 1.32 0 2 0 C2.33 2.64 2.66 5.28 3 8 C2.01 8.495 2.01 8.495 1 9 C0.67 6.03 0.34 3.06 0 0 Z " fill="#363A41" transform="translate(541,644)"/>
<path d="M0 0 C2.6855594 2.6855594 3.06049974 5.37621328 4 9 C3.01 9 2.02 9 1 9 C-0.4783226 6.04335481 -0.06032783 3.25770263 0 0 Z " fill="#3A3E45" transform="translate(312,527)"/>
<path d="M0 0 C0.99 0.33 1.98 0.66 3 1 C4.1875 4.5625 4.1875 4.5625 5 8 C2 7 2 7 0.8125 5.125 C0 3 0 3 0 0 Z " fill="#292E38" transform="translate(261,422)"/>
<path d="M0 0 C0.99 0 1.98 0 3 0 C3.33 3.63 3.66 7.26 4 11 C1.6870518 8.6870518 1.50419025 7.52095125 0.875 4.375 C0.70742188 3.55773437 0.53984375 2.74046875 0.3671875 1.8984375 C0.24601562 1.27195312 0.12484375 0.64546875 0 0 Z " fill="#4D4E53" transform="translate(364,404)"/>
<path d="M0 0 C2.12508244 3.18762365 2.5020163 5.26512223 3 9 C2.01 8.67 1.02 8.34 0 8 C-1.22393475 5.04215769 -0.96516243 3.00272755 0 0 Z " fill="#D8D5D2" transform="translate(323,291)"/>
<path d="M0 0 C0.66 0 1.32 0 2 0 C1.75 2.875 1.75 2.875 1 6 C-1.0625 7.375 -1.0625 7.375 -3 8 C-1.125 1.125 -1.125 1.125 0 0 Z " fill="#E5E2DF" transform="translate(443,274)"/>
<path d="M0 0 C2.5 1.3125 2.5 1.3125 5 3 C5 3.99 5 4.98 5 6 C1.535 4.02 1.535 4.02 -2 2 C-1.34 1.34 -0.68 0.68 0 0 Z " fill="#E4E1DE" transform="translate(593,723)"/>
<path d="M0 0 C0.99 0.33 1.98 0.66 3 1 C0.525 4.465 0.525 4.465 -2 8 C-2.66 7.34 -3.32 6.68 -4 6 C-3.01 5.67 -2.02 5.34 -1 5 C-0.67 3.35 -0.34 1.7 0 0 Z " fill="#272D37" transform="translate(732,641)"/>
<path d="M0 0 C0.99 0 1.98 0 3 0 C1.25 5.75 1.25 5.75 -1 8 C-2.2077558 4.37673261 -1.54311128 3.35853631 0 0 Z " fill="#ECEAE7" transform="translate(456,446)"/>
<path d="M0 0 C2 4 2 4 1.3125 6.1875 C0 8 0 8 -3 9 C-2.01 6.03 -1.02 3.06 0 0 Z " fill="#3A3F47" transform="translate(465,429)"/>
<path d="M0 0 C0.66 1.32 1.32 2.64 2 4 C0.625 6 0.625 6 -1 8 C-1.66 8 -2.32 8 -3 8 C-1.125 2.25 -1.125 2.25 0 0 Z " fill="#383D44" transform="translate(471,417)"/>
<path d="M0 0 C0.33 0 0.66 0 1 0 C1.36923077 5.53846154 1.36923077 5.53846154 -0.5 7.875 C-1.2425 8.431875 -1.2425 8.431875 -2 9 C-2.33 8.34 -2.66 7.68 -3 7 C-2.06421005 4.64018187 -1.06652192 2.30368736 0 0 Z " fill="#E7E3DF" transform="translate(393,404)"/>
<path d="M0 0 C0.99 0 1.98 0 3 0 C3.625 2.3125 3.625 2.3125 4 5 C3.01 6.485 3.01 6.485 2 8 C1.34 5.36 0.68 2.72 0 0 Z " fill="#3B4148" transform="translate(352,370)"/>
<path d="M0 0 C0 0.66 0 1.32 0 2 C0.99 2.33 1.98 2.66 3 3 C-3.625 2.25 -3.625 2.25 -7 0 C-3.86650268 -1.04449911 -3.01031744 -0.93423645 0 0 Z " fill="#D4D0CB" transform="translate(641,746)"/>
<path d="M0 0 C4.875 4.75 4.875 4.75 6 7 C3.13275314 6.42655063 2.1385485 6.1385485 0 4 C0 2.68 0 1.36 0 0 Z " fill="#DBD7D4" transform="translate(638,645)"/>
<path d="M0 0 C0.66 1.32 1.32 2.64 2 4 C0.68 5.32 -0.64 6.64 -2 8 C-2.33 7.34 -2.66 6.68 -3 6 C-2.06553465 3.96855359 -1.06775224 1.96466413 0 0 Z " fill="#F0EDE9" transform="translate(739,633)"/>
<path d="M0 0 C0.99 0 1.98 0 3 0 C3.66 1.98 4.32 3.96 5 6 C4.01 6.495 4.01 6.495 3 7 C0 2.25 0 2.25 0 0 Z " fill="#E8E6E3" transform="translate(301,502)"/>
<path d="M0 0 C2.15377564 2.62198774 3.40072174 4.64404172 4 8 C3.01 8 2.02 8 1 8 C-0.35439668 5.29120665 -0.06501451 2.99066732 0 0 Z " fill="#3F4349" transform="translate(292,483)"/>
</svg>
